<svg xmlns="http://www.w3.org/2000/svg" width="251.174" height="28.126" viewBox="0 0 251.174 28.126"><defs><style>.a{fill:#fff;}.b{fill:#5cc7a1;}</style></defs><g transform="translate(-139.826 -30.753)"><g transform="translate(139.846 30.733)"><path class="a" d="M53.565,309.2H45.219l-6.631-9.192H36.357v9.176H29V281.61H39.532c6.074,0,11.036,4.132,11.036,9.215a8.963,8.963,0,0,1-4.787,7.566L53.563,309.2M43.222,290.821a4.611,4.611,0,0,0-4.6-4.63H36.357v9.222h2.275a4.607,4.607,0,0,0,4.588-4.592Z" transform="translate(-29.02 -281.59)"/><path class="a" d="M164.327,321.736A11.269,11.269,0,1,1,161,313.763a11.3,11.3,0,0,1,3.328,7.973M153,315.824c-1.949,0-3.6,2.648-3.6,5.911s1.647,5.908,3.6,5.908c1.986,0,3.638-2.643,3.638-5.908S155,315.824,153,315.824Z" transform="translate(-120.164 -304.939)"/><path class="a" d="M283.033,312.783l-8.474,8.477v-8.5H267.2v21.6h7.359V325.6l8.849,8.765h9.253L281.42,323.116l9.314-9.31v12.83c0,4.261,2.555,8.184,9,8.184a10.207,10.207,0,0,0,7.229-3.305l3.311,2.851h1.566V312.783H304.5v13.979a4.128,4.128,0,0,1-3.767,2.357c-1.813,0-2.643-1.076-2.643-4.506v-11.83Z" transform="translate(-221.607 -306.775)"/><path class="a" d="M511.033,314.007a1.453,1.453,0,1,1,1.453-1.453A1.453,1.453,0,0,1,511.033,314.007Zm0-2.763a1.31,1.31,0,1,0,1.31,1.31A1.31,1.31,0,0,0,511.033,311.244Z" transform="translate(-417.573 -305.433)"/><path class="a" d="M513.9,314.836h.657a.586.586,0,0,1,.425.147.444.444,0,0,1,.123.318h0a.44.44,0,0,1-.35.446l.4.559h-.306l-.364-.515h-.324v.515H513.9Zm.638.732c.191,0,.3-.1.3-.247h0c0-.159-.113-.245-.3-.245h-.383v.5Z" transform="translate(-421.065 -308.452)"/></g><g transform="translate(231 33.022)"><g transform="translate(0 -0.022)"><path class="b" d="M4.09,5.531A10.147,10.147,0,0,0,2,5.959a11.757,11.757,0,0,1-.684-2.708C1.311.472,3.492.4,6.085.4,8.408.372,11.4.643,13.923.643A44.292,44.292,0,0,0,18.84.4a6.342,6.342,0,0,1,.713,2.708c0,2.28-1.283,2.665-3.848,2.665-1.739,0-3.848-.171-5.487-.242l-.5,5.3H11.4a18.113,18.113,0,0,0,4.176-.527,7.382,7.382,0,0,1,.67,2.85c0,2.594-1.952,2.922-3.591,2.922-.57,0-2.394-.114-3.463-.185-1.026,7.624-1.425,9.092-4.7,9.092A7.553,7.553,0,0,1,0,22.918C2.38,19.64,3.805,10.8,4.09,5.531Z" transform="translate(0 0.201)"/><path class="b" d="M22.142,3.135a51.3,51.3,0,0,1-1.425,8.551,37.2,37.2,0,0,0-.884,6.584c0,3.349,1.568,4.56,1.568,4.56a5.43,5.43,0,0,1-4.6,2.394c-3.135,0-3.848-2.18-3.848-4.275a81.046,81.046,0,0,1,1.425-9.335,47.9,47.9,0,0,0,.641-5.985,5.914,5.914,0,0,0-.855-3.777A6.741,6.741,0,0,1,18.722,0C21.173,0,22.142,1.425,22.142,3.135Z" transform="translate(5.505 0.032)"/><path class="b" d="M33.795,6.285a7.126,7.126,0,0,1,3.634-.67,7.126,7.126,0,0,1,1.211.071,55.465,55.465,0,0,0-1.425,11.4A6.071,6.071,0,0,0,38.5,21.106a7.126,7.126,0,0,1-4.988,1.967c-1.539,0-1.967-.641-1.967-2.038a13.638,13.638,0,0,1,.4-2.736h-.328c-1.6,4.033-3.42,4.959-5.7,4.959S19.9,22,19.9,15.947c0-8.408,5.872-11.216,9.477-11.216A6.427,6.427,0,0,1,33.795,6.285Zm-6.983,9.662a6.256,6.256,0,0,0,.428,2.85c.855,0,1.952-.969,2.993-3.492a27.776,27.776,0,0,0,1.425-5.914,3.477,3.477,0,0,0-2.024-.542C28.166,8.85,26.812,12.6,26.812,15.947Z" transform="translate(8.46 2.041)"/><path class="b" d="M49.439,8.045c0,2.38-3.449,3.278-3.449,3.278A4.617,4.617,0,0,0,43.211,7.86,1.653,1.653,0,0,0,41.957,9.4c0,.926,1.183,1.639,2.252,2.252C46.275,12.819,48.7,14.1,48.7,17.137c0,3.777-3.563,6.128-8.693,6.128-4.674,0-6.385-1.853-6.385-3.748,0-2.736,3.42-3.99,3.42-3.99A21.534,21.534,0,0,0,40.318,20.2a2.337,2.337,0,0,0,1.753-2c0-1.325-1.568-2-2.85-2.85-2.38-1.425-4.019-2.85-4.019-5.273,0-3.948,4.56-5.373,8.551-5.373C45.705,4.767,49.439,5.123,49.439,8.045Z" transform="translate(14.293 2.034)"/><path class="b" d="M51.9.009A2.736,2.736,0,0,1,55.04,3a25,25,0,0,1-1.967,8.08h.185a6.8,6.8,0,0,1,6.2-4.275A4.831,4.831,0,0,1,64.3,9.9a34.1,34.1,0,0,0-2,9.976,3.278,3.278,0,0,0,1.425,2.565,5.914,5.914,0,0,1-4.959,2.922c-2.565,0-3.449-1.283-3.449-3.463a48.711,48.711,0,0,1,2-9.691l-.257-.1c-1.853.171-3.349,2.166-3.876,4.275a40.944,40.944,0,0,0-.827,8.693,33.306,33.306,0,0,1-3.378.257c-2.608,0-3.463-1.325-3.463-2.993a15.961,15.961,0,0,1,.9-4.275A37.238,37.238,0,0,0,47.843,7.335c0-1.1-.257-4.019-1.14-5.016A6.356,6.356,0,0,1,51.9.009Z" transform="translate(19.352 0.022)"/><path class="b" d="M68.706,3.073a19.781,19.781,0,0,1-1.24,6.584l.214.071a6.613,6.613,0,0,1,5.7-2.95c3.777,0,5.487,3.207,5.487,6.442,0,6.1-3.093,12.085-9.121,12.085a5.145,5.145,0,0,1-4.275-2.323l-.114.071-.143,2.038s-1.739.214-2.665.214c-2.351,0-3.349-.784-3.349-1.9a19.5,19.5,0,0,1,.926-4.56,42.54,42.54,0,0,0,1.81-11.9c0-1.71-.456-3.876-1.425-4.589A6.313,6.313,0,0,1,65.57.009a2.75,2.75,0,0,1,3.135,3.064Zm-2.28,16.674a2.85,2.85,0,0,0,2.252,1.169c1.639,0,3.278-3.734,3.278-7.439a3.805,3.805,0,0,0-.47-2.066c-1.881,0-3.449,2.423-5.059,8.337Z" transform="translate(25.167 0.023)"/><path class="b" d="M87.623,6.285a10.11,10.11,0,0,1,4.817-.6,56.45,56.45,0,0,0-1.425,11.4A6.157,6.157,0,0,0,92.3,21.106a7.126,7.126,0,0,1-4.988,1.967c-1.525,0-1.952-.641-1.952-2.038a13.539,13.539,0,0,1,.385-2.736h-.314c-1.61,4.033-3.42,4.959-5.7,4.959S73.7,22,73.7,15.947c0-8.408,5.886-11.216,9.477-11.216a6.4,6.4,0,0,1,4.446,1.553ZM80.64,15.947a6.484,6.484,0,0,0,.428,2.85c.855,0,1.967-.969,2.993-3.492a28.589,28.589,0,0,0,1.468-5.914,3.534,3.534,0,0,0-2.038-.542C81.994,8.85,80.64,12.6,80.64,15.947Z" transform="translate(31.332 2.041)"/><path class="b" d="M95.813,23.277a7.781,7.781,0,0,1-8.237-8.308c0-7.225,4.389-10.218,10.446-10.218,2.351,0,5.444.855,5.444,3.591,0,3.036-4.8,3.677-4.8,3.677-.214-1.325-.855-3.036-1.568-3.036-1.254,0-2.636,2.109-2.636,6.385a5.7,5.7,0,0,0,1.24,3.99,11.4,11.4,0,0,0,2.85-3.748s3.891.9,3.891,3.42S99.447,23.277,95.813,23.277Z" transform="translate(37.222 2.051)"/><path class="b" d="M106.816,18.242h-.285a40.288,40.288,0,0,0-.5,6.8c-1.04.143-2.75.257-3.107.257-2.708,0-3.705-1.14-3.705-2.85,0-3.064,2.28-6.014,2.28-13.923,0-2.537-.214-5.031-1.14-6.128A6.67,6.67,0,0,1,105.491,0c2.537,0,3.249,1.425,3.249,3.064a22.945,22.945,0,0,1-1.924,7.867h.171a6.94,6.94,0,0,1,6.171-4.161,4.347,4.347,0,0,1,4.66,4.446c0,2.28-1.211,5.2-5.7,6.342a9.748,9.748,0,0,0,4.8,4.461S115.4,25.3,112.445,25.3,108.056,21.876,106.816,18.242Zm.171-2.423c2.608,0,4.774-1.325,4.774-3.207a1.425,1.425,0,0,0-.67-1.254,6.769,6.769,0,0,0-4.1,4.461Z" transform="translate(42.181 0.032)"/></g></g></g></svg>